# xmcd
#
# Track frame offsets: 
#        150
#        11375
#        29582
#        48072
#        99905
#        125945
#        148342
#        182840
#        198502
#        228962
#        240925
#        268665
#        296195
#
# Disc length: 4162 seconds
#
# Revision: 1
# Processed by: cddbd v1.5.2PL0 Copyright (c) Steve Scherf et al.
# Submitted via: ExactAudioCopy v1.0b4
#
DISCID=ba10400d
DTITLE=Various Artist - Good Whiskey Blues Live
DYEAR=1999
DGENRE=Blues
TTITLE0=Clarence Dobbins Review - Clarence Dobbins Review - Hearsy
TTITLE1=Kentucky Thunder - Kentucky Thunder - Love Is A Gift
TTITLE2=Kentucky Thunder - Kentucky Thunder - Mama압 Got Her Gun
TTITLE3=Mike Griffin  The Unknown Blues Band - Mike Griffin  The Unkno
TTITLE3=wn Blues Band - The Blues Ain앖 Never Gonna Die
TTITLE4=Gary Nicholson and The Change - Gary Nicholson and The Change - I 
TTITLE4=Got The Itch
TTITLE5=Eddie Gore압 Soiree - Eddie Gore압 Soiree - Get Up On It
TTITLE6=Michael Henderson and The Bluebloods - Michael Henderson and The B
TTITLE6=luebloods - When The Welfare Turn압 It Back On You
TTITLE7=Sid Herring압 Blue Sauce - Sid Herring압 Blue Sauce - Move On
TTITLE8=Little Kings - Little Kings - Reconsider Baby
TTITLE9=Mary-Ann Brandon - Mary-Ann Brandon - Stone Blues
TTITLE10=Scott Holt Band - Scott Holt Band - Ain앖 Gonna Be A Fool
TTITLE11=Blues Boyz - Blues Boyz - Murdered By Love
TTITLE12=Kentucky Thunder - Kentucky Thunder - Your Love압 Got A Hold 
TTITLE12=On Me
EXTD=
EXTT0=
EXTT1=
EXTT2=
EXTT3=
EXTT4=
EXTT5=
EXTT6=
EXTT7=
EXTT8=
EXTT9=
EXTT10=
EXTT11=
EXTT12=
PLAYORDER=
